<?xml version="1.0" encoding="UTF-8"?>
<svg width="200px" height="200px" viewBox="0 0 200 200" version="1.1" xmlns="http://www.w3.org/2000/svg" xmlns:xlink="http://www.w3.org/1999/xlink">
    <!-- Generator: Sketch 58 (84663) - https://sketch.com -->
    <title>bannerium</title>
    <desc>Created with Sketch.</desc>
    <g id="bannerium" stroke="none" stroke-width="1" fill="none" fill-rule="evenodd">
        <g transform="translate(8.000000, 0.000000)">
            <path d="M38.8775976,99.1229211 L38.8775976,21.2204179 L87.8163497,21.2204179 C110.121767,21.2204179 126.434685,24.5495847 136.422185,30.8750016 C146.409686,37.2004185 151.736352,47.1879189 151.736352,61.1704195 C151.736352,70.4920866 149.405936,78.1491703 145.078019,84.1416705 C140.750102,90.1341708 134.757602,93.7962542 127.433435,95.127921 L127.433435,96.126671 M72.5021824,83.1429205 L91.8113499,83.1429205 C100.8001,83.1429205 107.458434,81.8112537 111.453434,78.8150036 C115.448434,76.1516702 117.445934,71.4908366 117.445934,64.832503 C117.445934,58.8400028 115.115518,54.5120859 110.787601,51.8487525 C106.459684,49.185419 99.4684335,47.8537523 89.8138498,47.8537523 L72.1692657,47.8537523 L72.1692657,83.1429205 L72.5021824,83.1429205 Z" id="Shape" fill="#4349A3" fill-rule="nonzero"></path>
            <path d="M124.770101,91.1329208 C125.435935,91.1329208 129.098018,91.4658375 129.763851,91.7987542 C139.418435,94.1291709 144.412185,101.120421 148.740102,107.112921 C153.068019,113.105422 155.398436,122.760005 155.398436,132.747506 C155.398436,147.062923 150.071769,158.38209 139.751352,166.372091 C129.430935,174.362091 115.115518,178.357091 97.4709334,178.357091 L38.544681,178.357091 L38.8775976,97.1254211 C38.8775976,95.127921 41.8738478,91.7987542 45.2030146,91.7987542 L124.770101,91.1329208 Z M72.1692657,109.776255 L72.1692657,150.725007 L94.1417666,150.725007 C103.463434,150.725007 110.121767,149.060423 114.449684,145.39834 C118.777601,141.736256 121.108018,136.409589 121.108018,129.085422 C121.108018,116.101672 111.786351,109.443338 93.1430166,109.443338 L72.1692657,109.443338 L72.1692657,109.776255 Z" id="Shape" fill="#D64271" fill-rule="nonzero"></path>
            <rect id="Rectangle" stroke="#D64271" stroke-width="3.588" x="8.24926301" y="7.90375062" width="167.45709" height="182.438341"></rect>
            <rect id="Rectangle" fill="#D64271" fill-rule="nonzero" x="1.25801272" y="1.57833369" width="15.647084" height="15.647084"></rect>
            <rect id="Rectangle" fill="#D64271" fill-rule="nonzero" x="168.04927" y="0.579583648" width="15.647084" height="15.647084"></rect>
            <rect id="Rectangle" fill="#D64271" fill-rule="nonzero" x="0.925096039" y="182.352091" width="15.647084" height="15.647084"></rect>
            <rect id="Rectangle" fill="#D64271" fill-rule="nonzero" x="167.716353" y="182.352091" width="15.647084" height="15.647084"></rect>
        </g>
    </g>
</svg>